<svg width="169" height="48" viewBox="0 0 169 48" fill="none" xmlns="http://www.w3.org/2000/svg">
<path d="M56.2891 23.5645V17.5012C56.2891 15.5388 57.4716 14.1299 59.2579 14.1299C61.0694 14.1299 62.0254 15.6897 62.0254 17.4509V23.5394L65.598 23.5645V17.0987C65.598 13.1738 63.6104 10.7586 59.8114 10.7586C58.4528 10.7586 57.22 11.1863 56.2891 11.8656V5.37451H52.7166V23.5645H56.2891Z" fill="white"/>
<path d="M74.7897 23.8916C77.4314 23.8916 79.4945 22.6085 80.5763 20.3693L77.834 18.9856C77.2553 20.1429 76.1232 20.797 74.7646 20.797C72.9783 20.797 71.6952 19.69 71.4436 18.0295H80.7021V16.9729C80.7021 13.5764 78.4126 10.6579 74.4627 10.6579C70.6133 10.6579 67.9968 13.6267 67.9968 17.2244C67.9968 21.1996 70.9152 23.8916 74.7897 23.8916ZM71.5945 16.042C71.8461 14.784 72.8776 13.7777 74.4375 13.7777C75.947 13.7777 77.0037 14.7589 77.1547 16.042H71.5945Z" fill="white"/>
<path d="M88.8533 23.8916C90.5641 23.8916 91.9227 23.2123 92.8033 22.1053V23.5645H96.1997V17.2999C96.1997 13.5512 93.3316 10.7334 89.4319 10.7334C85.6078 10.7334 82.6893 13.7273 82.6893 17.2999C82.6893 20.9228 85.2304 23.8916 88.8533 23.8916ZM89.4319 20.5455C87.5953 20.5455 86.2619 19.0862 86.2619 17.3251C86.2619 15.5639 87.5953 14.1047 89.4319 14.1047C91.2686 14.1047 92.6271 15.5639 92.6271 17.3251C92.6271 19.0862 91.2686 20.5455 89.4319 20.5455Z" fill="white"/>
<path d="M105.606 23.9168C106.486 23.9168 107.568 23.7155 108.197 23.313V20.1177C107.593 20.4951 106.662 20.7216 105.933 20.7216C104.624 20.7216 103.794 19.9165 103.794 18.5327V14.1299H108.197V11.1108H103.794V7.94074H100.222V11.1108H97.9322V14.1299H100.222V18.6334C100.222 21.7531 102.008 23.9168 105.606 23.9168Z" fill="white"/>
<path d="M126.462 10.6579C124.222 10.6579 122.461 11.7146 121.681 13.4254C120.952 11.7146 119.216 10.6579 116.826 10.6579C112.8 10.6579 110.762 13.5764 110.762 17.0483V23.5645H114.335V17.627C114.335 15.7401 115.115 14.1299 117.102 14.1299C119.04 14.1299 119.87 15.7149 119.87 17.627V23.5645H123.443V17.6018C123.443 15.7149 124.273 14.1299 126.21 14.1299C128.172 14.1299 129.003 15.7401 129.003 17.6522V23.5645H132.575V17.0483C132.575 13.5764 130.512 10.6579 126.462 10.6579Z" fill="white"/>
<path d="M141.112 23.8916C142.823 23.8916 144.182 23.2123 145.062 22.1053V23.5645H148.459V17.2999C148.459 13.5512 145.591 10.7334 141.691 10.7334C137.867 10.7334 134.948 13.7273 134.948 17.2999C134.948 20.9228 137.49 23.8916 141.112 23.8916ZM141.691 20.5455C139.855 20.5455 138.521 19.0862 138.521 17.3251C138.521 15.5639 139.855 14.1047 141.691 14.1047C143.528 14.1047 144.886 15.5639 144.886 17.3251C144.886 19.0862 143.528 20.5455 141.691 20.5455Z" fill="white"/>
<path d="M155.022 29.3008V22.7595C155.953 23.4639 157.135 23.9168 158.393 23.9168C162.268 23.9168 164.935 21.1996 164.935 17.2999C164.935 13.7273 162.041 10.7586 158.192 10.7586C154.317 10.7586 151.449 13.5512 151.449 17.2999V29.3008H155.022ZM158.192 20.5455C156.355 20.5455 155.022 19.0862 155.022 17.3251C155.022 15.5639 156.355 14.1299 158.192 14.1299C160.029 14.1299 161.362 15.5639 161.362 17.3251C161.362 19.0862 160.029 20.5455 158.192 20.5455Z" fill="white"/>
<path d="M55.2573 43.8487V36.628H64.1888V43.8487H66.755V26.9921H64.1888V34.2631H55.2573V26.9921H52.691V43.8487H55.2573Z" fill="white"/>
<path d="M83.3787 43.8487V41.5089H74.1453V36.5777H82.6994V34.2379H74.1453V29.3319H83.2025V26.9921H73.944C72.208 26.9921 71.579 27.8727 71.579 29.3067V41.534C71.579 42.9681 72.208 43.8487 73.944 43.8487H83.3787Z" fill="white"/>
<path d="M89.8253 43.8487L89.8504 37.7099H91.9387C94.3036 37.7099 95.1339 39.0181 96.1402 41.0057L97.5491 43.8487H100.317L98.7819 40.7541C97.8007 38.7665 97.0711 37.3828 95.7125 36.7287C98.0775 36.2255 99.5367 34.4895 99.5367 32.0994C99.5367 28.6274 96.744 26.9921 93.1714 26.9921H87.3094V43.8487H89.8253ZM93.1966 29.357C95.2345 29.357 96.895 30.2376 96.895 32.3258C96.895 34.3637 95.31 35.4204 93.1463 35.4204H89.8504L89.8756 29.357H93.1966Z" fill="white"/>
<path d="M111.26 44.1506C116.116 44.1506 119.89 40.3516 119.89 35.3952C119.89 30.5144 116.116 26.7153 111.26 26.7153C106.379 26.7153 102.58 30.5144 102.58 35.3952C102.58 40.3516 106.354 44.1506 111.26 44.1506ZM111.26 41.7102C107.889 41.7102 105.222 38.9427 105.222 35.3952C105.222 31.8981 107.914 29.1558 111.26 29.1558C114.606 29.1558 117.248 31.8981 117.248 35.3952C117.248 38.9427 114.581 41.7102 111.26 41.7102Z" fill="white"/>
<path d="M5.15039 4.85742H17.9409L43.6245 30.5411V43.3315L5.15039 4.85742Z" fill="white"/>
<path d="M30.7827 4.85742H43.6245V17.6992L30.7827 4.85742Z" fill="#AA84ED"/>
<path d="M5 24.0962H24.3893V43.4818L5 24.0962Z" fill="#AA84ED"/>
</svg>
