<svg width="113" height="32" viewBox="0 0 113 32" fill="none" xmlns="http://www.w3.org/2000/svg">
<path d="M37.526 15.7096V11.6673C37.526 10.3591 38.3143 9.4198 39.5052 9.4198C40.7128 9.4198 41.3502 10.4597 41.3502 11.6338V15.6928L43.7319 15.7096V11.399C43.7319 8.78243 42.4069 7.17225 39.8742 7.17225C38.9685 7.17225 38.1466 7.45739 37.526 7.91025V3.58289H35.1443V15.7096H37.526Z" fill="black"/>
<path d="M49.8597 15.9276C51.6209 15.9276 52.9962 15.0722 53.7175 13.5794L51.8892 12.6569C51.5035 13.4285 50.7487 13.8646 49.843 13.8646C48.6521 13.8646 47.7967 13.1266 47.629 12.0196H53.8013V11.3151C53.8013 9.0508 52.275 7.10516 49.6417 7.10516C47.0755 7.10516 45.3311 9.08434 45.3311 11.4828C45.3311 14.1329 47.2767 15.9276 49.8597 15.9276ZM47.7296 10.6945C47.8973 9.85589 48.585 9.18498 49.6249 9.18498C50.6313 9.18498 51.3357 9.83912 51.4364 10.6945H47.7296Z" fill="black"/>
<path d="M59.2354 15.9276C60.376 15.9276 61.2817 15.4748 61.8688 14.7368V15.7096H64.1331V11.5332C64.1331 9.03402 62.221 7.15548 59.6212 7.15548C57.0718 7.15548 55.1261 9.15143 55.1261 11.5332C55.1261 13.9484 56.8202 15.9276 59.2354 15.9276ZM59.6212 13.6968C58.3968 13.6968 57.5078 12.724 57.5078 11.5499C57.5078 10.3758 58.3968 9.40302 59.6212 9.40302C60.8456 9.40302 61.7513 10.3758 61.7513 11.5499C61.7513 12.724 60.8456 13.6968 59.6212 13.6968Z" fill="black"/>
<path d="M70.4037 15.9444C70.9908 15.9444 71.712 15.8102 72.1313 15.5418V13.4117C71.7288 13.6633 71.1082 13.8143 70.6218 13.8143C69.7496 13.8143 69.1961 13.2775 69.1961 12.355V9.4198H72.1313V7.40707H69.1961V5.2937H66.8144V7.40707H65.288V9.4198H66.8144V12.4221C66.8144 14.5019 68.0052 15.9444 70.4037 15.9444Z" fill="black"/>
<path d="M84.3077 7.10516C82.8149 7.10516 81.6408 7.80962 81.1208 8.95016C80.6344 7.80962 79.4771 7.10516 77.8837 7.10516C75.2001 7.10516 73.8415 9.0508 73.8415 11.3654V15.7096H76.2232V11.7512C76.2232 10.4933 76.7432 9.4198 78.0682 9.4198C79.3597 9.4198 79.9132 10.4765 79.9132 11.7512V15.7096H82.2949V11.7344C82.2949 10.4765 82.8484 9.4198 84.1399 9.4198C85.4482 9.4198 86.0017 10.4933 86.0017 11.768V15.7096H88.3834V11.3654C88.3834 9.0508 87.0081 7.10516 84.3077 7.10516Z" fill="black"/>
<path d="M94.0749 15.9276C95.2154 15.9276 96.1212 15.4748 96.7082 14.7368V15.7096H98.9725V11.5332C98.9725 9.03402 97.0604 7.15548 94.4607 7.15548C91.9112 7.15548 89.9656 9.15143 89.9656 11.5332C89.9656 13.9484 91.6596 15.9276 94.0749 15.9276ZM94.4607 13.6968C93.2363 13.6968 92.3473 12.724 92.3473 11.5499C92.3473 10.3758 93.2363 9.40302 94.4607 9.40302C95.6851 9.40302 96.5908 10.3758 96.5908 11.5499C96.5908 12.724 95.6851 13.6968 94.4607 13.6968Z" fill="black"/>
<path d="M103.348 19.5338V15.1728C103.968 15.6425 104.757 15.9444 105.595 15.9444C108.178 15.9444 109.956 14.1329 109.956 11.5332C109.956 9.15143 108.027 7.17225 105.461 7.17225C102.878 7.17225 100.966 9.03402 100.966 11.5332V19.5338H103.348ZM105.461 13.6968C104.237 13.6968 103.348 12.724 103.348 11.5499C103.348 10.3758 104.237 9.4198 105.461 9.4198C106.686 9.4198 107.575 10.3758 107.575 11.5499C107.575 12.724 106.686 13.6968 105.461 13.6968Z" fill="black"/>
<path d="M36.8383 29.2324V24.4186H42.7926V29.2324H44.5034V17.9947H42.7926V22.842H36.8383V17.9947H35.1274V29.2324H36.8383Z" fill="black"/>
<path d="M55.5859 29.2324V27.6726H49.4303V24.3851H55.133V22.8252H49.4303V19.5545H55.4684V17.9947H49.2961C48.1388 17.9947 47.7194 18.5817 47.7194 19.5378V27.6893C47.7194 28.6454 48.1388 29.2324 49.2961 29.2324H55.5859Z" fill="black"/>
<path d="M59.8836 29.2324L59.9004 25.1399H61.2925C62.8692 25.1399 63.4227 26.012 64.0936 27.3371L65.0328 29.2324H66.8778L65.8547 27.1694C65.2006 25.8443 64.7142 24.9218 63.8084 24.4857C65.3851 24.1503 66.3579 22.993 66.3579 21.3995C66.3579 19.0849 64.4961 17.9947 62.1144 17.9947H58.2063V29.2324H59.8836ZM62.1312 19.5713C63.4897 19.5713 64.5967 20.1584 64.5967 21.5505C64.5967 22.9091 63.5401 23.6135 62.0976 23.6135H59.9004L59.9172 19.5713H62.1312Z" fill="black"/>
<path d="M74.1735 29.4337C77.4106 29.4337 79.9265 26.901 79.9265 23.5968C79.9265 20.3429 77.4106 17.8102 74.1735 17.8102C70.9195 17.8102 68.3869 20.3429 68.3869 23.5968C68.3869 26.901 70.9028 29.4337 74.1735 29.4337ZM74.1735 27.8067C71.9259 27.8067 70.148 25.9617 70.148 23.5968C70.148 21.2654 71.9427 19.4371 74.1735 19.4371C76.4042 19.4371 78.1654 21.2654 78.1654 23.5968C78.1654 25.9617 76.3875 27.8067 74.1735 27.8067Z" fill="black"/>
<path d="M3.43359 3.23828H11.9606L29.083 20.3607V28.8877L3.43359 3.23828Z" fill="black"/>
<path d="M20.5217 3.23828H29.0829V11.7995L20.5217 3.23828Z" fill="#AA84ED"/>
<path d="M3.33325 16.0642H16.2594V28.9879L3.33325 16.0642Z" fill="#AA84ED"/>
</svg>
